inDegrees=no
num_controls=7
num_derivatives=13
num_iterations=79
num_multipliers=7
num_parameters=0
num_slacks=7
num_states=26
objective=0.455591
objective_accelerations=0.043969
objective_balance=0.000806
objective_effort=0.035654
objective_height=0.369052
objective_ligament=0.006109
solver_duration=960.429912
status=Solve_Succeeded
success=true
DataType=double
version=3
OpenSimVersion=4.5
endheader
time	/jointset/ground_pelvis/pelvis_tilt/value	/jointset/ground_pelvis/pelvis_tx/value	/jointset/ground_pelvis/pelvis_ty/value	/jointset/hip_r/hip_flexion_r/value	/jointset/hip_r/hip_adduction_r/value	/jointset/hip_r/hip_rotation_r/value	/jointset/back/lumbar_extension/value	/jointset/patellofemoral_r/patellar_flexion_r/value	/jointset/knee_r/knee_flexion_r/value	/jointset/knee_r/knee_adduction_r/value	/jointset/knee_r/knee_rotation_r/value	/jointset/ankle_r/ankle_angle_r/value	/jointset/subtalar_r/subtalar_angle_r/value	/jointset/ground_pelvis/pelvis_tilt/speed	/jointset/ground_pelvis/pelvis_tx/speed	/jointset/ground_pelvis/pelvis_ty/speed	/jointset/hip_r/hip_flexion_r/speed	/jointset/hip_r/hip_adduction_r/speed	/jointset/hip_r/hip_rotation_r/speed	/jointset/back/lumbar_extension/speed	/jointset/patellofemoral_r/patellar_flexion_r/speed	/jointset/knee_r/knee_flexion_r/speed	/jointset/knee_r/knee_adduction_r/speed	/jointset/knee_r/knee_rotation_r/speed	/jointset/ankle_r/ankle_angle_r/speed	/jointset/subtalar_r/subtalar_angle_r/speed	/forceset/tau_hip_flexion_r	/forceset/tau_hip_adduction_r	/forceset/tau_hip_rotation_r	/forceset/tau_knee_flexion_r	/forceset/tau_ankle_angle_r	/forceset/tau_subtalar_angle_r	/forceset/tau_lumbar_extension	lambda_cid13_p0	lambda_cid14_p0	lambda_cid14_p1	lambda_cid14_p2	lambda_cid14_p3	lambda_cid14_p4	lambda_cid14_p5	/jointset/ground_pelvis/pelvis_tilt/accel	/jointset/ground_pelvis/pelvis_tx/accel	/jointset/ground_pelvis/pelvis_ty/accel	/jointset/hip_r/hip_flexion_r/accel	/jointset/hip_r/hip_adduction_r/accel	/jointset/hip_r/hip_rotation_r/accel	/jointset/back/lumbar_extension/accel	/jointset/patellofemoral_r/patellar_flexion_r/accel	/jointset/knee_r/knee_flexion_r/accel	/jointset/knee_r/knee_adduction_r/accel	/jointset/knee_r/knee_rotation_r/accel	/jointset/ankle_r/ankle_angle_r/accel	/jointset/subtalar_r/subtalar_angle_r/accel	gamma_cid13_p0	gamma_cid14_p0	gamma_cid14_p1	gamma_cid14_p2	gamma_cid14_p3	gamma_cid14_p4	gamma_cid14_p5
1	-0.1967461039075575	0.0003898048645530851	0.6646466462315236	1.314496450999359	-0.2549625496108217	0.0909681835576307	-0.7853942764086329	1.456045409540343	1.456045409540585	0.04900966768435938	0.174519413192528	0.4362669865322702	0.1399608529784161	0.06948980935136839	0.005386670303887018	0.01436830792539088	-0.09907727551152937	-0.001468569295115829	-0.008796354996276311	0.0008123098545888559	-0.01695530582933464	-0.01695530582933562	-0.00222294976543677	3.538398310358188e-05	0.01259255524198935	0.003177052847634028	-0.3105971396610354	0.02888073790251846	0.05050840451532571	-0.4591130949667587	-0.02902827874016721	-0.01922024155926165	0.3442943966255929	-0.04079048186198552	-61.82053854841394	-22.65800763346874	8.016465119539609	9.063231861787068	-760.239474601153	63.56042672179414	1.239861447345032	0.1413078346576823	1.649792310281133	-5.024011811376956	-0.06273975641457327	-1.507574024637275	0.07370880893754479	-4.796107287538507	-4.796107287538353	0.07190755669321794	-0.002327277199121725	-1.243029951465467	-0.6453223630437205	1.269885577593821e-10	-1.129727920218663e-09	-4.553308895124751e-09	8.345339386625972e-10	2.088015415770559e-09	-4.729633238592703e-09	-1.005876907320301e-08
1.01	-0.1959903991374969	0.0004509024426033513	0.6648726182825099	1.313255766928446	-0.2549802866171676	0.09080475699533642	-0.7853797056133395	1.455636376175461	1.455636376175478	0.04899071192153405	0.1745194888877482	0.4363310415854273	0.1399606410502474	0.08159827294743623	0.006852325298385767	0.03081939062130071	-0.1490223087790826	-0.002079703256002134	-0.02388469858018601	0.002302315255594219	-0.06484261292762926	-0.06484261292763026	-0.001565875061446845	-1.80725558067504e-05	0.0002441503179867446	-0.003209179615913505	-0.3113659806950562	0.02894927150427622	0.05049014744296609	-0.4589302095851043	-0.02941904874553462	-0.0191570061942574	0.3453470195440027	-0.04078696426124651	-61.96863218635906	-22.64857607798264	8.005939276729938	8.887770872942751	-760.8308831385502	63.5669127051094	1.188408131636547	0.1521175466383489	1.641757936534996	-4.974164751025632	-0.06043067181192475	-1.508826787622649	0.2167163114022038	-4.78372915565746	-4.783729155657545	0.06295733074027142	-0.006530428025446511	-1.226891802789059	-0.6337360430582459	-6.539510001040389e-10	-3.218247906574436e-09	-5.013229921967134e-09	-3.865364734078968e-09	6.039919316649209e-09	-7.794651883155163e-09	-1.640824947633457e-08
1.02	-0.1951151958682957	0.0005272412135570415	0.6652628994979132	1.311516749391528	-0.2550041610543014	0.09049057454473353	-0.7853442207828246	1.454748732392658	1.454748732392459	0.04897839688644485	0.1745190949004272	0.4362723833814959	0.1398968743264336	0.09338950917945579	0.00843490888457181	0.04723014080875913	-0.1987439687098867	-0.002696055452339729	-0.03894753265829018	0.004995116885399994	-0.1126773894132249	-0.1126773894132253	-0.0008948042179197715	-5.855252625194742e-05	-0.01195009620287197	-0.009533906281382539	-0.3121348217291429	0.02901780510602948	0.05047189037060095	-0.4587473242034539	-0.02980981875089387	-0.01909377082925776	0.3463996424623519	-0.04078964192951687	-62.12459369424605	-22.63737592245303	7.991538026114547	8.720933750874407	-761.5673827057562	63.57513922344123	1.176415974535389	0.1646935529951385	1.641725808590848	-4.979337144027126	-0.06378340350482611	-1.502472123476162	0.3142680546972753	-4.785601164998702	-4.785601164998432	0.07470678460064695	0.0002680364938921539	-1.212198270836691	-0.633021203428012	-1.106076164894934e-09	-3.768469630432575e-09	-3.737685469845696e-09	-9.126133420131476e-09	6.62759768182343e-09	-1.126267200339544e-08	-1.772708159479201e-08
1.03	-0.1941236057410508	0.0006199375123613116	0.6658170609756854	1.309281680524854	-0.2550341734056831	0.09002594629387797	-0.7852762124117556	1.453382921164564	1.453382921164482	0.04897287107120661	0.1745183062711185	0.4360923614053193	0.1397701979342553	0.1048795201205952	0.01011858360446637	0.06359259341638919	-0.2482252522540006	-0.003302377277662473	-0.05396810934099615	0.008768201052405571	-0.1604842080731085	-0.1604842080731123	-0.0002064975215523425	-0.0001018592585065872	-0.02404808463252516	-0.01578880037132155	-0.3124114905738079	0.02905434974722932	0.05043834608801922	-0.4583666714862985	-0.03011080036014938	-0.01902345826039466	0.3469984659330673	-0.04080745426549276	-62.22493102355204	-22.60760410826679	7.967597915553069	8.628341179751823	-761.8689645735394	63.57593722628702	1.127944276178808	0.1723407802766063	1.632067819446157	-4.925841426831446	-0.05845218358154562	-1.500351919683641	0.4330751556666247	-4.77812468290074	-4.778124682901407	0.0664736699041225	-0.007036452558267174	-1.207667319154288	-0.619839778614413	-1.554846080776925e-09	-4.302994433244812e-09	-2.444432186306249e-09	-1.439262526958512e-08	7.180947215000647e-09	-1.473480438359162e-08	-1.899458056748745e-08
1.04	-0.19301858537994	0.0007298978281225067	0.6665345595460535	1.306553135329289	-0.2550701280976259	0.08941141198039261	-0.7851656238874033	1.451539061256587	1.451539061256625	0.0489743445344805	0.1745170032896002	0.4357915459068107	0.1395813493478101	0.116075555952758	0.01188771227595684	0.0798975593278981	-0.2974392344872328	-0.003884523564407592	-0.0689287451843365	0.01351114753798656	-0.2082871253896935	-0.2082871253897016	0.0005050514847899129	-0.0001614229696824793	-0.03610880066716461	-0.02196834513476597	-0.3126881594184915	0.02909089438842604	0.05040480180543813	-0.4579860187691441	-0.03041178196940307	-0.01895314569153656	0.3475972894037658	-0.04083153603596241	-62.33321372767478	-22.576164365431	7.939897934950729	8.542932998945343	-762.3169273090487	63.57853251473882	1.117620952740064	0.1817843433143287	1.630228469366621	-4.92587688185077	-0.05894829578930572	-1.490483955603039	0.5082405184122398	-4.784820896338954	-4.784820896338863	0.07935524659561592	-0.002983359290349399	-1.204743791833928	-0.6179513381290967	-2.285442624948696e-09	-5.037452199256288e-09	-2.454619406129322e-09	-1.972553330426942e-08	8.194976403853625e-09	-1.736070668276654e-08	-2.363211548368277e-08
1.05	-0.191802987838365	0.0008580044531799073	0.6674147576722779	1.303333805177055	-0.2551117518232424	0.08864763885692332	-0.7850027940701323	1.44921731004242	1.449217310042411	0.04898303168938838	0.1745149968125837	0.4353703373944089	0.1393311723255813	0.1270012534128181	0.0137506481646129	0.09612596556237035	-0.3463778728730256	-0.004433232506906136	-0.08380851299245748	0.01921584530665269	-0.2560506440631716	-0.2560506440631607	0.001235415719689961	-0.0002449364032642333	-0.04812419462087466	-0.02804607680288909	-0.312726812610312	0.02908247547741213	0.05035027973436763	-0.4572786931518787	-0.03063309217610164	-0.01886532319193302	0.3480134939011229	-0.04086241678545276	-62.3862081363667	-22.51950358912396	7.899112060891621	8.4087109934884	-762.3812501240615	63.56617156489937	1.073639316330835	0.1911053810725784	1.616727628997308	-4.870519329180047	-0.05178628864630538	-1.48412272348669	0.6257388144121925	-4.770245733297415	-4.770245733294665	0.07033550872437019	-0.01180087836032046	-1.198631543171216	-0.599540022829698	-3.024846251254521e-09	-5.778157870367738e-09	-2.505539141682467e-09	-2.506051684474217e-08	9.22340183194647e-09	-1.996016429190955e-08	-2.837496402311245e-08
1.06	-0.1904794142874514	0.001005251871010126	0.6684567560465492	1.299626556238517	-0.2551586534573173	0.0877355881493577	-0.7847780863935038	1.446418297965428	1.446418297965373	0.04899911418600244	0.1745120020926423	0.434829236073262	0.139020846798336	0.1376707578205528	0.01571587083052049	0.1122576089372338	-0.3950229917482784	-0.004940105256051391	-0.09858426200338244	0.02588671940805449	-0.3037392979544566	-0.3037392979544283	0.00198411982607849	-0.0003590715555713804	-0.06008736241585195	-0.0339980461380462	-0.3127654658021293	0.02907405656639329	0.05029575766329721	-0.4565713675346131	-0.03085440238280222	-0.01877750069233957	0.3484296983984828	-0.04089970342505528	-62.44730321215345	-22.46130600274784	7.854705924660229	8.280737746371079	-762.5935232970442	63.55596936105873	1.066382342274948	0.2022416987646347	1.610875897444854	-4.867172979742753	-0.05058105711865905	-1.469680196163843	0.7014757849593224	-4.769847939900342	-4.769847939900528	0.08302322089331962	-0.009107703035399956	-1.194298560087377	-0.5927988715359156	-3.768444817559436e-09	-6.501752706421874e-09	-2.179657725444732e-09	-3.094714951264388e-08	1.013638251790639e-08	-2.255772693820283e-08	-3.207848595706723e-08
1.07	-0.1890503931338391	0.001172665161572351	0.6696595251410462	1.295434413943644	-0.2552103907766932	0.08667633865107907	-0.7844819720248314	1.443142846268332	1.44314284626847	0.04902275867257001	0.1745077175930841	0.4341687207774693	0.1386516722928049	0.14809164257713	0.01778404707737216	0.1282736299726764	-0.4433448875833867	-0.005397944867204973	-0.1132430907795147	0.03348712267601728	-0.3513312480776439	-0.3513312480776473	0.002747483665545517	-0.0005029971810164772	-0.07201149766816053	-0.03981180464623222	-0.3124353664223399	0.02901373471596575	0.05022231954768604	-0.4555939833313498	-0.03094319674594514	-0.01867921885820181	0.3485288106929765	-0.04094620862835228	-62.43509596404849	-22.37923193903252	7.799069210470229	8.131548951720031	-762.3702107183443	63.5349517664351	1.023666972155365	0.2116967784280643	1.593573140394953	-4.805611571981884	-0.04197729805008434	-1.460608540272933	0.8119678500471702	-4.750898627463269	-4.750898627467906	0.07340313653934669	-0.01781881175238021	-1.190841648260272	-0.5719114102778334	-4.512266518970686e-09	-7.224437391675088e-09	-1.833733694750033e-09	-3.686312521923862e-08	1.104322252609329e-08	-2.515518878859986e-08	-3.572672456094355e-08
